<?xml version="1.0" encoding="UTF-8"?>
<svg width="146px" height="44px" viewBox="0 0 146 44" version="1.1" xmlns="http://www.w3.org/2000/svg" xmlns:xlink="http://www.w3.org/1999/xlink">
    <!-- Generator: Sketch 52.2 (67145) - http://www.bohemiancoding.com/sketch -->
    <title>AppStore</title>
    <desc>Created with Sketch.</desc>
    <g id="AppStore" stroke="none" stroke-width="1" fill="none" fill-rule="evenodd">
        <g id="Group" fill-rule="nonzero">
            <path d="M140.50801,43.5306667 L4.82672406,43.5306667 C3.66499919,43.5350195 2.54427039,43.1056066 1.68787283,42.328 C0.701040045,41.4436462 0.141056078,40.1848634 0.14805902,38.8666667 L0.14805902,5.13333333 C0.148007819,2.56888929 2.23798613,0.485461912 4.82672406,0.469333333 L140.50801,0.469333333 C141.139527,0.473964947 141.763737,0.603616799 142.343942,0.850666667 C144.121151,1.54538753 145.293386,3.24075632 145.305122,5.13333333 L145.305122,38.8666667 C145.300961,40.0158851 144.868624,41.1231228 144.091038,41.976 C143.188058,42.9942887 141.87584,43.5636569 140.50801,43.5306667 Z" id="Shape" fill="#201600"></path>
            <path d="M30.2040401,21.472 C30.2270535,19.3215676 31.3397053,17.3266067 33.1652205,16.1626667 C31.985073,14.4875569 30.0739947,13.4648442 28.0127666,13.4053333 C25.8511049,13.1706667 23.7486668,14.696 22.6530301,14.696 C21.5573933,14.696 19.6918497,13.4346667 17.974365,13.464 C15.6131482,13.5493945 13.4636063,14.8358632 12.2888987,16.8666667 C9.80150713,21.1493333 11.6670508,27.4266667 14.0656069,30.888 C15.2500791,32.5893333 16.6418339,34.4666667 18.4777657,34.408 C20.3136976,34.3493333 20.9355454,33.2933333 23.0972071,33.2933333 C25.2588688,33.2933333 25.8807167,34.408 27.7462604,34.3786667 C29.611804,34.3493333 30.7074408,32.6773333 32.0103602,30.9466667 C32.8672183,29.7425836 33.5360549,28.41749 33.994351,27.016 C31.7198284,26.0438949 30.2350702,23.8377016 30.2040401,21.384 L30.2040401,21.472 Z" id="Shape" fill="#FFFFFF"></path>
            <path d="M26.6802354,11 C27.7377767,9.76106279 28.2591835,8.1588479 28.1312138,6.54133333 C26.5336526,6.71468667 25.0571568,7.46688648 23.9855613,8.65333333 C22.9259505,9.83449308 22.3921409,11.3891344 22.5049711,12.9653333 C24.1269822,12.9775789 25.6653634,12.2534494 26.6802354,11 Z" id="Shape" fill="#FFFFFF"></path>
            <path d="M56.1143686,34.2613333 L53.6269771,34.2613333 L52.2352223,29.9786667 L47.4973337,29.9786667 L46.1944143,34.2613333 L43.7366345,34.2613333 L48.4745232,19.7413333 L51.4357036,19.7413333 L56.1735922,34.2613333 L56.1143686,34.2613333 Z M51.8502689,28.1893333 L50.6065731,24.4053333 C50.4585141,24.024 50.2216196,23.1146667 49.866278,21.6773333 L49.1852065,24.4053333 L47.9711225,28.1893333 L51.8502689,28.1893333 Z" id="Shape" fill="#FFFFFF"></path>
            <path d="M68.2552083,28.8933333 C68.3520253,30.4356841 67.8306128,31.9535884 66.8042299,33.1173333 C65.9693257,34.0197968 64.7823844,34.5221752 63.5469314,34.496 C62.3566062,34.5778536 61.2177948,34.0025216 60.585751,33 L60.585751,38.5146667 L58.2168067,38.5146667 L58.2168067,27.2213333 C58.2168067,26.1066667 58.2168067,24.9626667 58.2168067,23.7893333 L60.289633,23.7893333 L60.289633,25.432 C61.0256198,24.3555094 62.223917,23.6779393 63.5338903,23.5975536 C64.8438636,23.5171679 66.117419,24.0430545 66.9819007,25.0213333 C67.8488391,26.1240389 68.2898754,27.4971177 68.2255965,28.8933333 L68.2552083,28.8933333 Z M65.8566522,28.8933333 C65.8906996,28.0037526 65.6533591,27.124651 65.1755807,26.3706667 C64.7218623,25.6988856 63.9475773,25.3098258 63.1323662,25.344 C62.5574222,25.3297414 61.9977902,25.5284775 61.5629406,25.9013333 C61.0866378,26.2806049 60.7528981,26.8075007 60.6153628,27.3973333 C60.5932783,27.6314901 60.5932783,27.8671765 60.6153628,28.1013333 L60.6153628,29.8613333 C60.6081899,30.5705553 60.8606652,31.2583332 61.3260461,31.7973333 C61.8386802,32.3426846 62.5706801,32.6323192 63.3215281,32.5868971 C64.0723761,32.541475 64.7633582,32.1657579 65.2051925,31.5626667 C65.7374057,30.7758478 65.9972069,29.8390647 65.9454876,28.8933333 L65.8566522,28.8933333 Z" id="Shape" fill="#FFFFFF"></path>
            <path d="M80.4256597,28.8933333 C80.5036883,30.4331385 79.9846079,31.9442537 78.9746813,33.1173333 C78.1352954,34.0135097 76.9513475,34.5146212 75.7173829,34.496 C74.5256872,34.584559 73.3835717,34.0075577 72.7562025,33 L72.7562025,38.5146667 L70.41687,38.5146667 L70.41687,27.2213333 C70.41687,26.1066667 70.41687,24.9626667 70.41687,23.7893333 L72.4896963,23.7893333 L72.4896963,25.432 C73.2354599,24.2097382 74.6039979,23.4980124 76.0431127,23.584 C77.2552811,23.5668658 78.4098126,24.0955454 79.181964,25.0213333 C80.0489024,26.1240389 80.4899386,27.4971177 80.4256597,28.8933333 Z M78.0271036,28.8933333 C78.0680816,27.9988588 77.8190437,27.1148651 77.3164203,26.3706667 C76.8627019,25.6988856 76.088417,25.3098258 75.2732058,25.344 C74.7000572,25.3404687 74.1441235,25.5378915 73.7037802,25.9013333 C73.2349275,26.2820571 72.9111255,26.809754 72.7858143,27.3973333 C72.7522021,27.6308189 72.7522021,27.8678477 72.7858143,28.1013333 L72.7858143,29.8613333 C72.7786413,30.5705553 73.0311167,31.2583332 73.4964976,31.7973333 C74.0146351,32.3435706 74.7511516,32.6332778 75.5064254,32.5879341 C76.2616991,32.5425904 76.9575051,32.1668921 77.4052557,31.5626667 C77.937469,30.7758478 78.1972701,29.8390647 78.1455508,28.8933333 L78.0271036,28.8933333 Z" id="Shape" fill="#FFFFFF"></path>
            <path d="M94.0174778,30.184 C94.0235423,31.3007285 93.549797,32.3672971 92.7145584,33.1173333 C91.5902127,34.0219931 90.1623716,34.4725101 88.7169649,34.3786667 C87.3912196,34.4463114 86.0742495,34.1303571 84.9266539,33.4693333 L85.51889,31.5333333 C86.5443681,32.1525455 87.7232843,32.4775067 88.9242475,32.472 C89.6618615,32.510555 90.3913598,32.304087 90.9970738,31.8853333 C91.4699939,31.4830941 91.7316917,30.8890097 91.7077571,30.272 C91.7336856,29.7212859 91.5177052,29.1864128 91.115521,28.8053333 C90.5318922,28.2894948 89.8460975,27.8998702 89.1019183,27.6613333 C86.5256914,26.7226667 85.2523838,25.344 85.2523838,23.496 C85.22558,22.3688526 85.7155271,21.2903203 86.584915,20.5626667 C87.6003319,19.7647159 88.8732505,19.3582946 90.1679433,19.4186667 C91.3246538,19.3787619 92.473592,19.6204894 93.5140771,20.1226667 L92.921841,22.0293333 C92.0605843,21.5626814 91.0900746,21.3299255 90.1087197,21.3546667 C89.4176443,21.3214681 88.7366503,21.5290343 88.1839524,21.9413333 C87.8080572,22.2793419 87.5931025,22.7584417 87.5917163,23.2613333 C87.5844734,23.8184999 87.8354723,24.348208 88.2727878,24.6986667 C88.9250796,25.1707759 89.6432991,25.5462715 90.4048377,25.8133333 C91.4564472,26.1811924 92.4087501,26.783329 93.1883473,27.5733333 C93.7891488,28.2764934 94.1056377,29.1752298 94.0767014,30.096 L94.0174778,30.184 Z" id="Shape" fill="#FFFFFF"></path>
            <path d="M101.77577,25.6666667 L99.1995435,25.6666667 L99.1995435,30.7706667 C99.1995435,32.0613333 99.6437206,32.7066667 100.561686,32.7066667 C100.905169,32.7585922 101.254617,32.7585922 101.5981,32.7066667 L101.5981,34.4666667 C101.017116,34.6623631 100.405061,34.7518171 99.7917796,34.7306667 C98.9696644,34.7861447 98.1656686,34.4740283 97.6005061,33.88 C96.9837762,33.0314505 96.7092013,31.9853247 96.8305992,30.9466667 L96.8305992,25.6666667 L95.2907854,25.6666667 L95.2907854,23.936 L96.8305992,23.936 L96.8305992,22 L99.1403199,21.3253333 L99.1403199,23.936 L101.716547,23.936 L101.716547,25.6666667 L101.77577,25.6666667 Z" id="Shape" fill="#FFFFFF"></path>
            <path d="M113.472433,28.9226667 C113.524208,30.3774341 113.028157,31.7993153 112.080678,32.912 C111.081967,33.9740808 109.665675,34.5524056 108.201532,34.496 C106.801372,34.5511167 105.447634,33.9932577 104.500056,32.9706667 C103.560305,31.8997588 103.063258,30.5169239 103.108302,29.0986667 C103.064748,27.6400574 103.571514,26.2177232 104.529668,25.1093333 C105.525345,24.066855 106.93242,23.5093177 108.379203,23.584 C109.788824,23.5241748 111.153555,24.0821001 112.11029,25.1093333 C113.035543,26.1636484 113.522371,27.5265291 113.472433,28.9226667 Z M111.014653,28.9226667 C111.037819,28.0512475 110.822972,27.1898061 110.392805,26.4293333 C109.989397,25.6486661 109.175663,25.1604753 108.290367,25.168 C107.387585,25.1518802 106.552155,25.6393546 106.128706,26.4293333 C105.698825,27.2005493 105.484177,28.071314 105.506858,28.952 C105.49815,29.8650283 105.755164,30.7612107 106.247153,31.5333333 C106.663716,32.3084849 107.477917,32.7928348 108.364397,32.7928348 C109.250877,32.7928348 110.065078,32.3084849 110.481641,31.5333333 C110.935291,30.7811461 111.161401,29.9157543 111.133101,29.04 L111.014653,28.9226667 Z" id="Shape" fill="#FFFFFF"></path>
            <path d="M121.053055,25.8426667 C120.807261,25.8119908 120.558553,25.8119908 120.31276,25.8426667 C119.560168,25.8121046 118.844478,26.1665844 118.417604,26.7813333 C118.01031,27.3885137 117.803372,28.1059851 117.825368,28.8346667 L117.825368,34.3493333 L115.486036,34.3493333 L115.486036,27.1626667 C115.486036,25.96 115.486036,24.8746667 115.486036,23.8773333 L117.52925,23.8773333 L117.52925,25.872 C117.744057,25.2245014 118.145521,24.6534614 118.684111,24.2293333 C119.183989,23.8708044 119.784459,23.6759485 120.401595,23.672 L121.053055,23.672 L121.053055,25.9013333 L121.053055,25.8426667 Z" id="Shape" fill="#FFFFFF"></path>
            <path d="M131.594857,28.6 C131.63193,28.9510422 131.63193,29.3049578 131.594857,29.656 L124.458412,29.656 C124.413392,30.564328 124.79622,31.4419698 125.494825,32.032 C126.149098,32.5465325 126.970234,32.8072422 127.804546,32.7653333 C128.815691,32.8021393 129.823662,32.6323956 130.765727,32.2666667 L131.121068,33.88 C130.005097,34.3373482 128.804539,34.5572129 127.597264,34.5253333 C126.163621,34.6054057 124.760146,34.0959913 123.718117,33.1173333 C122.759647,32.0573535 122.25984,30.6668408 122.326362,29.2453333 C122.26442,27.8218533 122.727545,26.4246903 123.629282,25.3146667 C124.523954,24.2052754 125.898556,23.5843516 127.330757,23.6426667 C128.698487,23.575379 130.005807,24.206289 130.795338,25.3146667 C131.436576,26.2895511 131.757258,27.437248 131.713304,28.6 L131.594857,28.6 Z M129.373972,28.0133333 C129.397476,27.3836731 129.232646,26.7611699 128.900183,26.224 C128.502447,25.5891325 127.787964,25.2183989 127.034639,25.256 C126.294835,25.2460928 125.597375,25.5970268 125.169096,26.1946667 C124.761135,26.7208854 124.514448,27.352167 124.458412,28.0133333 L129.373972,28.0133333 Z" id="Shape" fill="#FFFFFF"></path>
            <path d="M44.8618831,7.80266667 C45.1296749,7.64527712 45.4188651,7.52673754 45.7206254,7.45066667 C46.0713743,7.32411515 46.4431158,7.26439965 46.8162622,7.27466667 C47.4105626,7.24620992 47.996486,7.42240682 48.4745232,7.77333333 C48.867118,8.0991295 49.0857144,8.58634619 49.0667593,9.09333333 C49.075159,9.49455446 48.9266119,9.88345127 48.652194,10.1786667 C48.3900171,10.4775829 48.0365181,10.683568 47.6453927,10.7653333 L48.2968524,10.9706667 C48.4916312,11.0603406 48.6713881,11.1790516 48.8298648,11.3226667 C48.981251,11.474583 49.1018703,11.6538103 49.1852065,11.8506667 C49.2825743,12.0521312 49.333165,12.2726371 49.3332655,12.496 C49.3434769,12.8469582 49.2509166,13.1933418 49.0667593,13.4933333 C48.9157901,13.7555234 48.7022864,13.9770906 48.4449114,14.1386667 C48.1810144,14.3103109 47.8911068,14.4390473 47.5861691,14.52 C47.2610967,14.5489932 46.9340519,14.5489932 46.6089795,14.52 C46.2739875,14.548309 45.9371703,14.548309 45.6021782,14.52 C45.2682688,14.4573985 44.9477294,14.3383266 44.6546005,14.168 L44.9507185,13.288 L45.6614018,13.552 C45.9558352,13.5962503 46.2553226,13.5962503 46.5497559,13.552 C46.9616118,13.5881963 47.3725535,13.4733796 47.7046163,13.2293333 C47.9718588,13.0170446 48.1159469,12.6876607 48.0895697,12.3493333 C48.1549999,12.1591483 48.1549999,11.9528517 48.0895697,11.7626667 C47.9897545,11.5999314 47.8462182,11.4679011 47.6750045,11.3813333 C47.5000891,11.28281 47.3100134,11.2134406 47.1123802,11.176 L46.4609205,11.176 L45.8390726,11.176 L45.8390726,10.3253333 L46.3128615,10.3253333 C46.7121798,10.332422 47.104362,10.2199632 47.4381101,10.0026667 C47.5621655,9.8893666 47.6715751,9.76128023 47.7638399,9.62133333 C47.797465,9.46666186 47.797465,9.30667148 47.7638399,9.152 C47.778695,8.86366023 47.6448982,8.58753815 47.4084982,8.41866667 C47.146378,8.21788774 46.8216824,8.11413223 46.4905323,8.12533333 C46.2271472,8.12860772 45.9664502,8.17827029 45.7206254,8.272 L45.0099421,8.536 L44.7434359,7.71466667 L44.8618831,7.80266667 Z" id="Shape" fill="#FFFFFF"></path>
            <path d="M54.0415423,14.5493333 L54.0415423,13.9333333 C53.687667,14.4022001 53.1216078,14.6660758 52.5313403,14.6373333 C52.3152777,14.6678219 52.0959433,14.6678219 51.8798807,14.6373333 L51.37648,14.3146667 C51.2416059,14.1778272 51.1314312,14.0190801 51.0507501,13.8453333 C51.0084594,13.6421368 51.0084594,13.4325299 51.0507501,13.2293333 C51.0194844,12.6385581 51.3294038,12.081401 51.8502689,11.792 C52.5404938,11.4255951 53.3187309,11.2531528 54.100766,11.2933333 C54.1324183,11.0018624 54.024787,10.7124791 53.8097991,10.5110247 C53.5948113,10.3095702 53.2971564,10.2191799 53.0051292,10.2666667 C52.5248899,10.2712633 52.0546167,10.4029167 51.6429862,10.648 L51.4060918,9.91466667 C51.9564518,9.60763332 52.5810728,9.45548241 53.2124118,9.47466667 C54.5745548,9.47466667 55.2260145,10.1786667 55.2260145,11.5866667 L55.2260145,13.4933333 C55.1874094,13.9031097 55.1874094,14.315557 55.2260145,14.7253333 L54.0415423,14.5493333 Z M54.0415423,11.968 C53.5467077,11.9460301 53.0526494,12.0259341 52.590564,12.2026667 C52.2793566,12.356197 52.0923055,12.6804581 52.1167751,13.024 C52.0902631,13.2408192 52.1668385,13.4575486 52.3240577,13.6106667 C52.488256,13.7506624 52.6998027,13.8240075 52.9162938,13.816 C53.053072,13.8436572 53.1940809,13.8436572 53.3308591,13.816 L53.6862007,13.6106667 C53.788326,13.5103635 53.8689076,13.3906278 53.9230951,13.2586667 C53.9661743,13.1251036 53.9661743,12.9815631 53.9230951,12.848 L53.9230951,12.056 L54.0415423,11.968 Z" id="Shape" fill="#FFFFFF"></path>
            <polygon id="Shape" fill="#FFFFFF" points="60.5561392 9.38666667 60.5561392 10.3546667 58.4240893 10.3546667 58.4240893 14.5493333 57.269229 14.5493333 57.269229 9.38666667 60.5561392 9.38666667"></polygon>
            <path d="M67.1891833,11.9093333 C67.1930032,12.288095 67.1329539,12.6648304 67.0115125,13.024 C66.9080675,13.3341484 66.747418,13.6225873 66.5377236,13.8746667 C66.340804,14.1250124 66.0872132,14.3259772 65.7974285,14.4613333 C65.5067523,14.5813795 65.194364,14.6412732 64.8794626,14.6373333 C64.2926854,14.6908308 63.7237575,14.4203135 63.3988724,13.9333333 L63.3988724,16.632 L62.2440121,16.632 L62.2440121,10.2666667 C62.2440121,9.97333333 62.2440121,9.68 62.2440121,9.38666667 L63.2508134,9.38666667 L63.2508134,10.208 C63.6153368,9.60472401 64.2895955,9.25378403 64.9979098,9.29866667 C65.2933761,9.29775522 65.5858082,9.35768945 65.8566522,9.47466667 C66.1160007,9.60539365 66.3472946,9.78470401 66.5377236,10.0026667 C66.9537398,10.5518011 67.1726097,11.2228849 67.1595715,11.9093333 L67.1891833,11.9093333 Z M66.0047112,11.9093333 C66.0371665,11.6757678 66.0371665,11.4388988 66.0047112,11.2053333 C65.952192,11.0045547 65.8617633,10.8154449 65.7382049,10.648 C65.6181242,10.4996923 65.4664511,10.3794949 65.2940279,10.296 C65.1095121,10.2488063 64.9159194,10.2488063 64.7314036,10.296 C64.5747419,10.2679644 64.4142764,10.2679644 64.2576147,10.296 C64.1079338,10.3767696 63.9687236,10.4752703 63.8430495,10.5893333 C63.7208805,10.7134738 63.6296275,10.8641319 63.5765432,11.0293333 C63.5326671,11.20265 63.5326671,11.3840167 63.5765432,11.5573333 L63.5765432,12.408 C63.5429319,12.5824253 63.5429319,12.7615747 63.5765432,12.936 C63.6296275,13.1012014 63.7208805,13.2518596 63.8430495,13.376 C63.9452273,13.4965161 64.0781624,13.5876826 64.2280029,13.64 C64.3929236,13.6835495 64.5664829,13.6835495 64.7314036,13.64 C65.1303899,13.6524553 65.508872,13.4649938 65.7382049,13.1413333 C66.0179726,12.7592573 66.1541411,12.2923374 66.1231584,11.8213333 L66.0047112,11.9093333 Z" id="Shape" fill="#FFFFFF"></path>
            <path d="M73.3780504,9.38666667 L72.075131,12.9653333 C71.8116114,13.677175 71.5050682,14.3726553 71.1571651,15.048 C70.9267217,15.4763521 70.6377528,15.8711816 70.2984228,16.2213333 C69.9387696,16.5437782 69.4995189,16.7663978 69.0251152,16.8666667 L68.7289971,15.8986667 C69.0493493,15.8059428 69.3502566,15.656904 69.6173513,15.4586667 C69.882586,15.2214688 70.0944598,14.9316326 70.2391992,14.608 C70.2509625,14.5302118 70.2509625,14.4511216 70.2391992,14.3733333 C70.2594467,14.2864762 70.2594467,14.1961905 70.2391992,14.1093333 L68.3736555,9.38666667 L69.6469631,9.38666667 L70.6241526,12.32 L70.7722116,12.76 C70.7722116,12.936 70.7722116,13.1413333 70.7722116,13.3466667 C70.77938,13.2000859 70.77938,13.0532474 70.7722116,12.9066667 C70.8079921,12.7048827 70.867626,12.5079723 70.9498824,12.32 L71.8086248,9.38666667 L73.3780504,9.38666667 Z" id="Shape" fill="#FFFFFF"></path>
            <path d="M75.3620412,11.528 L75.8950537,11.528 C76.2150417,11.554184 76.5354382,11.4825168 76.8130196,11.3226667 C77.005252,11.2130699 77.1279873,11.014119 77.1387495,10.7946667 C77.1417366,10.5942613 77.0412366,10.4062131 76.8722433,10.296 C76.6413149,10.1546412 76.3736952,10.0832674 76.1023363,10.0906667 C75.8972108,10.0487737 75.685614,10.0487737 75.4804885,10.0906667 L74.8882524,10.3253333 L74.5921343,9.592 C74.8752262,9.4288783 75.1865307,9.3194542 75.5101003,9.26933333 L76.3984544,9.26933333 C76.6344898,9.24107122 76.8731023,9.24107122 77.1091377,9.26933333 C77.3319732,9.29877892 77.5448537,9.37911361 77.7309856,9.504 C77.9061113,9.60899992 78.0573544,9.74883262 78.1751626,9.91466667 C78.3120232,10.1121385 78.3748735,10.350799 78.3528335,10.5893333 C78.3834327,10.7245442 78.3834327,10.8647891 78.3528335,11 C78.2915597,11.135524 78.2005087,11.2557837 78.0863272,11.352 C77.9850718,11.4531649 77.8641994,11.5329887 77.7309856,11.5866667 L77.3460321,11.5866667 L77.8494328,11.5866667 C77.9981607,11.6572564 78.1374233,11.7459405 78.263998,11.8506667 C78.4026116,11.9492744 78.5145,12.0802626 78.5897279,12.232 C78.6200876,12.3869991 78.6200876,12.5463342 78.5897279,12.7013333 C78.5983611,12.9745492 78.5150231,13.2428507 78.3528335,13.464 C78.2099704,13.673895 78.0166177,13.8452679 77.7902092,13.9626667 C77.5452741,14.0811344 77.2867562,14.1697799 77.0203023,14.2266667 C76.7545532,14.2548094 76.4865327,14.2548094 76.2207836,14.2266667 C75.8957112,14.2556599 75.5686664,14.2556599 75.243594,14.2266667 C74.950226,14.1682028 74.6695559,14.0589765 74.4144635,13.904 L74.7105816,13.1706667 C74.91689,13.275758 75.1357769,13.3546047 75.3620412,13.4053333 C75.5970048,13.4477058 75.837761,13.4477058 76.0727245,13.4053333 C76.3956248,13.4208299 76.7156834,13.3390109 76.9906905,13.1706667 C77.1762478,13.044726 77.2870659,12.8361516 77.2868085,12.6133333 C77.3207549,12.4884462 77.3207549,12.3568871 77.2868085,12.232 C77.2026972,12.1291542 77.1027683,12.0400641 76.9906905,11.968 L76.5169016,11.968 L75.4212649,11.968 L75.4212649,11.2346667 L75.3620412,11.528 Z" id="Shape" fill="#FFFFFF"></path>
            <path d="M81.5509083,9.38666667 L81.5509083,11.2053333 C81.5509083,11.616 81.5509083,11.9973333 81.5509083,12.32 C81.5509083,12.6426667 81.5509083,13.024 81.5509083,13.376 L81.9358617,12.584 L82.350427,11.792 L83.6237346,9.35733333 L85.1339366,9.35733333 L85.1339366,14.52 L84.0382998,14.52 L84.0382998,12.672 C84.0382998,12.2906667 84.0382998,11.9093333 84.0382998,11.5573333 C84.0382998,11.2053333 84.0382998,10.7653333 84.0382998,10.384 C83.9360963,10.6643975 83.817447,10.9386423 83.6829582,11.2053333 C83.6829582,11.44 83.4164519,11.6746667 83.2980047,11.9386667 L82.646545,13.2 C82.4392624,13.64 82.202368,14.0506667 81.9654735,14.52 L80.4552715,14.52 L80.4552715,9.35733333 L81.5509083,9.38666667 Z" id="Shape" fill="#FFFFFF"></path>
            <polygon id="Shape" fill="#FFFFFF" points="91.1451328 9.38666667 91.1451328 10.3546667 89.5757072 10.3546667 89.5757072 14.5493333 88.4208468 14.5493333 88.4208468 10.3546667 86.8514212 10.3546667 86.8514212 9.38666667 91.1451328 9.38666667"></polygon>
            <path d="M97.0378818,11.7333333 L97.0378818,11.9973333 C97.0378818,11.9973333 97.0378818,12.1733333 97.0378818,12.232 L93.5436889,12.232 C93.5273487,12.6574981 93.6879028,13.071013 93.987866,13.376 C94.3206189,13.6454386 94.7432563,13.781504 95.1723381,13.7573333 C95.6463886,13.7585111 96.1171312,13.6791383 96.5640929,13.5226667 L96.7417638,14.3146667 C96.1974215,14.5369496 95.6129814,14.6467493 95.0242791,14.6373333 C93.9551419,14.7507516 92.9484148,14.118343 92.5961112,13.112 C92.4722726,12.7635498 92.4121085,12.3960271 92.4184404,12.0266667 C92.3957764,11.3111796 92.6380104,10.6121774 93.0995119,10.0613333 C93.315773,9.81865677 93.5771626,9.61947875 93.8694188,9.47466667 C94.1892405,9.34489951 94.5306615,9.27526799 94.8762201,9.26933333 C95.1815636,9.2651838 95.4843298,9.32516759 95.7645742,9.44533333 C96.0344445,9.55982548 96.2766849,9.72979886 96.4752575,9.944 C96.6651545,10.167119 96.8063112,10.4268019 96.8898228,10.7066667 C96.9369066,11.0472997 96.9369066,11.3927003 96.8898228,11.7333333 L97.0378818,11.7333333 Z M95.942245,11.4106667 C95.9575531,11.0640289 95.8531013,10.7225795 95.646127,10.4426667 C95.4350764,10.1905009 95.1178441,10.0496306 94.7873847,10.0613333 C94.4698247,10.0700666 94.1699201,10.2079986 93.9582542,10.4426667 C93.7148157,10.7104179 93.568872,11.0511929 93.5436889,11.4106667 L95.942245,11.4106667 Z" id="Shape" fill="#FFFFFF"></path>
            <path d="M101.686935,9.44533333 C101.952216,9.40952945 102.221173,9.40952945 102.486454,9.44533333 L104.174327,9.44533333 C104.437221,9.47283433 104.695758,9.53193572 104.944233,9.62133333 C105.177159,9.70189657 105.389424,9.83206295 105.566081,10.0026667 C105.732865,10.2102176 105.817137,10.4710912 105.802976,10.736 C105.833575,10.8712109 105.833575,11.0114558 105.802976,11.1466667 C105.751984,11.2718751 105.670618,11.3827003 105.566081,11.4693333 C105.47638,11.5704774 105.365126,11.6506286 105.240352,11.704 L104.855398,11.704 C105.20015,11.7629149 105.525317,11.9038374 105.802976,12.1146667 C106.022629,12.3432852 106.140043,12.6499217 106.128706,12.9653333 C106.151445,13.277053 106.044451,13.5844169 105.832588,13.816 C105.634923,14.0378727 105.378469,14.2004597 105.092292,14.2853333 C104.79931,14.4018132 104.489408,14.4711329 104.174327,14.4906667 L103.315584,14.4906667 L101.77577,14.4906667 L101.77577,9.38666667 L101.686935,9.44533333 Z M102.812184,11.4986667 L103.285972,11.4986667 L103.789373,11.4986667 L104.203938,11.4986667 C104.319512,11.4578914 104.421822,11.3869484 104.500056,11.2933333 C104.530502,11.187892 104.530502,11.076108 104.500056,10.9706667 C104.518726,10.7589157 104.399844,10.5587174 104.203938,10.472 C103.917993,10.337094 103.602082,10.276525 103.285972,10.296 L102.930631,10.296 L102.930631,11.616 L102.812184,11.4986667 Z M102.812184,13.7573333 L103.967044,13.7573333 L104.440833,13.6106667 C104.701838,13.4980533 104.87453,13.2471535 104.88501,12.9653333 C104.897308,12.6992213 104.727066,12.4583052 104.470445,12.3786667 C104.130966,12.2484956 103.768166,12.1885976 103.40442,12.2026667 L102.812184,12.2026667 L102.812184,13.728 L102.812184,13.7573333 Z" id="Shape" fill="#FFFFFF"></path>
        </g>
    </g>
</svg>