<?xml version="1.0" encoding="UTF-8"?>
<svg width="146px" height="44px" viewBox="0 0 146 44" version="1.1" xmlns="http://www.w3.org/2000/svg" xmlns:xlink="http://www.w3.org/1999/xlink">
    <!-- Generator: Sketch 52.2 (67145) - http://www.bohemiancoding.com/sketch -->
    <title>GooglePlay</title>
    <desc>Created with Sketch.</desc>
    <defs>
        <linearGradient x1="81.6399666%" y1="50%" x2="-158.684306%" y2="50%" id="linearGradient-1">
            <stop stop-color="#F4D951" offset="0%"></stop>
            <stop stop-color="#EAB34C" offset="43%"></stop>
            <stop stop-color="#E49B48" offset="78%"></stop>
            <stop stop-color="#E29247" offset="100%"></stop>
        </linearGradient>
        <linearGradient x1="86.2745098%" y1="17.8129417%" x2="-50.1633987%" y2="195.094124%" id="linearGradient-2">
            <stop stop-color="#D25B58" offset="0%"></stop>
            <stop stop-color="#AA527A" offset="100%"></stop>
        </linearGradient>
        <linearGradient x1="-50.8169935%" y1="-95.5182414%" x2="60.620915%" y2="49.3179396%" id="linearGradient-3">
            <stop stop-color="#669D75" offset="0%"></stop>
            <stop stop-color="#6AA075" offset="8%"></stop>
            <stop stop-color="#82B573" offset="65%"></stop>
            <stop stop-color="#8BBC72" offset="100%"></stop>
        </linearGradient>
    </defs>
    <g id="GooglePlay" stroke="none" stroke-width="1" fill="none" fill-rule="evenodd">
        <g id="Group" fill-rule="nonzero">
            <path d="M140.936382,43.5306667 L5.25509546,43.5306667 C2.66635753,43.5145381 0.576379222,41.4311107 0.576430423,38.8666667 L0.576430423,5.13333333 C0.562058273,3.90057523 1.05366211,2.71488291 1.93857341,1.848 C2.81258759,0.966287662 4.00763885,0.469509017 5.25509546,0.469333333 L140.936382,0.469333333 C142.696336,0.465378621 144.309644,1.44012803 145.111646,2.992 C145.454318,3.65525837 145.636784,4.38829835 145.644658,5.13333333 L145.644658,38.8666667 C145.644658,41.4425227 143.536691,43.5306667 140.936382,43.5306667 Z" id="Shape" fill="#201600"></path>
            <path d="M73.8360336,23.848 C71.2684324,23.848 69.1869804,25.909878 69.1869804,28.4533333 C69.1869804,30.9967887 71.2684324,33.0586667 73.8360336,33.0586667 C76.4036348,33.0586667 78.4850868,30.9967887 78.4850868,28.4533333 C78.501165,27.2271097 78.0165202,26.0464485 77.141144,25.1793044 C76.2657677,24.3121602 75.0738981,23.832073 73.8360336,23.848 Z M73.8360336,31.2106667 C72.6804751,31.2952071 71.5907984,30.6692308 71.0909403,29.6337189 C70.5910822,28.598207 70.7833104,27.3650185 71.575198,26.5270932 C72.3670855,25.689168 73.5966175,25.4179402 74.672612,25.8438211 C75.7486065,26.269702 76.4509221,27.3055592 76.4418723,28.4533333 C76.4739299,29.1635319 76.215487,29.8565233 75.7250228,30.3755015 C75.2345585,30.8944796 74.553529,31.1955783 73.8360336,31.2106667 Z M63.7087966,23.848 C61.1411954,23.848 59.0597434,25.909878 59.0597434,28.4533333 C59.0597434,30.9967887 61.1411954,33.0586667 63.7087966,33.0586667 C66.2763978,33.0586667 68.3578498,30.9967887 68.3578498,28.4533333 C68.3822568,27.2246706 67.9002889,26.0391859 67.0230756,25.170222 C66.1458623,24.301258 64.9491234,23.8238225 63.7087966,23.848 Z M63.7087966,31.2106667 C62.5478149,31.2447352 61.4850605,30.568491 61.0335894,29.5083981 C60.5821183,28.4483052 60.8347647,27.2223465 61.6695609,26.4223663 C62.5043571,25.6223862 63.7496472,25.4128815 64.8042543,25.8949929 C65.8588613,26.3771042 66.5059306,27.4516969 66.4330826,28.6 C66.4253472,29.305355 66.1329734,29.978308 65.6211721,30.4687642 C65.1093707,30.9592203 64.420713,31.2263838 63.7087966,31.2106667 Z M51.6567924,25.344 L51.6567924,27.3093333 L56.3354574,27.3093333 C56.2782383,28.2193538 55.9010614,29.0807782 55.2694325,29.744 C54.3244262,30.7073825 53.0119593,31.2295636 51.6567924,31.1813333 C48.9225699,30.9773168 46.8091842,28.7201826 46.8091842,26.004 C46.8091842,23.2878174 48.9225699,21.0306832 51.6567924,20.8266667 C52.967235,20.8172115 54.2303441,21.3113951 55.180597,22.2053333 L56.5723518,20.8266667 C55.2567567,19.5627933 53.4892914,18.8666746 51.6567924,18.8906667 C48.9812621,18.7203825 46.4320327,20.0377066 45.0421621,22.3088025 C43.6522915,24.5798983 43.6522915,27.4281017 45.0421621,29.6991975 C46.4320327,31.9702934 48.9812621,33.2876175 51.6567924,33.1173333 C53.5348528,33.1847288 55.3536263,32.4597966 56.6611873,31.1226667 C57.8012242,29.8833794 58.4069656,28.2516781 58.3490601,26.576 C58.3828598,26.1660158 58.3828598,25.7539842 58.3490601,25.344 L51.6567924,25.344 Z M100.930834,26.8693333 C100.378923,25.1631007 98.8004133,23.9874127 96.9924643,23.936 C95.7852111,23.9423004 94.6332952,24.4383634 93.8051771,25.3085788 C92.9770589,26.1787943 92.5450807,27.3471425 92.6099173,28.5413333 C92.5857409,29.7570424 93.0605679,30.9304399 93.9257378,31.793003 C94.7909078,32.6555661 95.9723667,33.1334639 97.199747,33.1173333 C98.7503598,33.116596 100.201188,32.3596057 101.078893,31.0933333 L99.4798559,30.0373333 C99.0026953,30.8319322 98.132969,31.313056 97.199747,31.2986667 C96.244668,31.3316205 95.3653845,30.7857846 94.9788617,29.92 L101.167729,27.3973333 L100.930834,26.8693333 Z M94.62352,28.3946667 C94.5831995,27.7204997 94.8174464,27.0584678 95.2738275,26.5567591 C95.7302086,26.0550503 96.3706109,25.7555628 97.0516879,25.7253333 C97.7692242,25.6737918 98.4473175,26.0559753 98.7691726,26.6933333 L94.62352,28.3946667 Z M89.5895133,32.824 L91.6327278,32.824 L91.6327278,19.36 L89.5895133,19.36 L89.5895133,32.824 Z M86.2729913,24.9626667 C85.6370273,24.2917323 84.7441288,23.9187497 83.8152115,23.936 C81.3990968,24.1274712 79.5368976,26.1256265 79.5368976,28.5266667 C79.5368976,30.9277068 81.3990968,32.9258621 83.8152115,33.1173333 C84.7509996,33.1385924 85.6492146,32.7526689 86.2729913,32.0613333 L86.2729913,32.736 C86.2729913,34.496 85.3254135,35.4346667 83.8152115,35.4346667 C82.7714412,35.4073083 81.8475621,34.7585654 81.475879,33.792 L79.6991708,34.5253333 C80.3938973,36.1667583 82.018477,37.2319079 83.8152115,37.224 C85.0743329,37.2801057 86.2932408,36.7776708 87.140504,35.8533117 C87.9877671,34.9289526 88.3753107,33.6787581 88.1977585,32.4426667 L88.1977585,24.2293333 L86.2729913,24.2293333 L86.2729913,24.9626667 Z M83.9336588,31.2986667 C83.2088073,31.3152212 82.5090879,31.0352286 81.9992135,30.5245987 C81.4893391,30.0139689 81.2143523,29.3178111 81.2389846,28.6 C81.1987303,27.8898146 81.4494795,27.1935865 81.9344356,26.6690167 C82.4193917,26.1444468 83.0975171,25.8359249 83.8152115,25.8133333 C84.5229988,25.8429575 85.1881052,26.1567618 85.6573645,26.6824808 C86.1266237,27.2081998 86.3595861,27.9005171 86.3026031,28.6 C86.3384693,29.9554474 85.2980438,31.1020358 83.9336588,31.2106667 L83.9336588,31.2986667 Z M110.584282,19.36 L105.727947,19.36 L105.727947,32.824 L107.741549,32.824 L107.741549,27.72 L110.70273,27.72 C112.294667,27.8522196 113.826225,27.0856877 114.663247,25.7377947 C115.500269,24.3899017 115.500269,22.6900983 114.663247,21.3422053 C113.826225,19.9943123 112.294667,19.2277804 110.70273,19.36 L110.584282,19.36 Z M110.584282,25.872 L107.623102,25.872 L107.623102,21.2373333 L110.584282,21.2373333 C111.209827,21.2294889 111.812481,21.4701684 112.257616,21.9056058 C112.702751,22.3410433 112.953277,22.9349554 112.953227,23.5546667 C112.829359,24.7811085 111.768766,25.7036036 110.525059,25.6666667 L110.584282,25.872 Z M123.139687,23.936 C121.621124,23.8407629 120.190322,24.6473829 119.497435,25.9893333 L121.303755,26.7226667 C121.676456,26.0617315 122.408596,25.6818356 123.169299,25.7546667 C124.239584,25.6523412 125.19228,26.4256805 125.301349,27.4853333 C124.642544,27.1488495 123.910461,26.977622 123.169299,26.9866667 C121.244532,26.9866667 119.260541,28.0426667 119.260541,29.92 C119.305877,30.7560115 119.689635,31.5385873 120.324996,32.0906797 C120.960356,32.6427722 121.793625,32.9177249 122.636287,32.8533333 C123.679043,32.8990269 124.669068,32.3975248 125.242125,31.5333333 L125.242125,32.5893333 L127.196504,32.5893333 L127.196504,27.4266667 C127.169086,26.3971665 126.709295,25.4256839 125.927935,24.7463355 C125.146575,24.0669871 124.114513,23.7413865 123.080464,23.848 L123.139687,23.936 Z M122.873181,31.2986667 C122.221721,31.2986667 121.303755,30.976 121.303755,30.1546667 C121.303755,29.3333333 122.458616,28.7173333 123.435805,28.7173333 C124.089227,28.7022982 124.734354,28.864599 125.301349,29.1866667 C125.090721,30.4267117 123.961433,31.3038489 122.69551,31.2106667 L122.873181,31.2986667 Z M134.392173,24.2293333 L132.082452,30.096 L129.683896,24.2293333 L127.492622,24.2293333 L131.105263,32.384 L129.032436,36.9306667 L131.164486,36.9306667 L136.731505,24.2293333 L134.392173,24.2293333 Z M116.12169,32.824 L118.135292,32.824 L118.135292,19.36 L116.12169,19.36 L116.12169,32.824 Z" id="Shape" fill="#FFFFFF"></path>
            <path d="M11.059009,8.536 C10.7006725,8.96207688 10.5205508,9.50785627 10.5556084,10.0613333 L10.5556084,33.88 C10.5205508,34.4334771 10.7006725,34.9792564 11.059009,35.4053333 L24.5323799,22.0586667 L24.5323799,21.7653333 L11.059009,8.41866667 L11.059009,8.536 Z" id="Shape" fill="#84C1EC"></path>
            <path d="M29.0925977,26.576 L24.5916035,22.1173333 L24.5916035,21.824 L29.0925977,17.3653333 L34.4227224,20.2986667 C35.0941776,20.5256069 35.545509,21.1505431 35.545509,21.8533333 C35.545509,22.5561236 35.0941776,23.1810597 34.4227224,23.408 L29.0925977,26.3413333 L29.0925977,26.576 Z" id="Shape" fill="url(#linearGradient-1)"></path>
            <path d="M29.1814331,26.5173333 L24.5916035,21.9706667 L11.059009,35.4053333 C11.7135492,35.9359637 12.654966,35.9359637 13.3095062,35.4053333 L29.1814331,26.6053333" id="Shape" fill="url(#linearGradient-2)"></path>
            <path d="M29.1814331,17.424 L13.3095062,8.47733333 C12.654966,7.946703 11.7135492,7.946703 11.059009,8.47733333 L24.5916035,21.912 L29.1814331,17.424 Z" id="Shape" fill="url(#linearGradient-3)"></path>
            <path d="M45.5271489,15.8106667 L44.7276302,15.8106667 L44.7276302,13.64 L45.3494781,13.64 C45.9874649,12.9730094 46.2915137,12.0586838 46.1786086,11.1466667 L46.1786086,8.06666667 L50.5315438,8.06666667 L50.5315438,13.7573333 L51.2718389,13.7573333 L51.2718389,15.928 L50.4723202,15.928 L50.4723202,14.5493333 L45.5271489,14.5493333 L45.5271489,15.8106667 Z M47.0373509,11.1466667 C47.0762655,12.0197061 46.8603681,12.8853586 46.4155031,13.64 L49.7024133,13.64 L49.7024133,8.74133333 L47.0373509,8.74133333 L47.0373509,11.1466667 Z" id="Shape" fill="#FFFFFF"></path>
            <path d="M57.8160476,13.5813333 C57.1860761,14.2228776 56.3209819,14.5848014 55.4174915,14.5848014 C54.5140011,14.5848014 53.6489069,14.2228776 53.0189354,13.5813333 C51.7585816,12.232062 51.7585816,10.1492714 53.0189354,8.8 C53.980409,7.81969515 55.4507304,7.52451403 56.721633,8.05664795 C57.9925356,8.58878187 58.8033998,9.83910799 58.7636253,11.2053333 C58.7947752,12.0933573 58.4514722,12.954171 57.8160476,13.5813333 Z M53.6407832,13.0533333 C54.1133696,13.5186076 54.7512149,13.7818772 55.4174915,13.7866667 C56.0864201,13.7951074 56.7292293,13.529789 57.1941997,13.0533333 C58.1833654,12.0048535 58.1833654,10.3764798 57.1941997,9.328 C56.7261967,8.85933927 56.0826729,8.60435042 55.4174915,8.624 C54.7547886,8.6178095 54.1163617,8.87077876 53.6407832,9.328 C52.7426064,10.4104055 52.7426064,11.9709279 53.6407832,13.0533333 Z" id="Shape" fill="#FFFFFF"></path>
            <path d="M62.9981133,14.5786667 C62.0972357,14.6018425 61.2276001,14.2508783 60.5995572,13.6106667 C59.3022493,12.253248 59.3022493,10.1280853 60.5995572,8.77066667 C61.2276001,8.13045502 62.0972357,7.77949084 62.9981133,7.80266667 C63.9200532,7.76525705 64.8069062,8.15570727 65.3966694,8.85866667 L64.8044334,9.44533333 C64.3726125,8.89733247 63.6991122,8.59109203 62.9981133,8.624 C62.3252044,8.6099903 61.6746624,8.8635343 61.1917933,9.328 C60.2026275,10.3764798 60.2026275,12.0048535 61.1917933,13.0533333 C61.6638264,13.5373282 62.3189571,13.8032995 62.9981133,13.7866667 C63.77722,13.7876988 64.5159211,13.4433438 65.011716,12.848 L65.6039521,13.4053333 C65.2902547,13.7607725 64.9075807,14.0500668 64.4787035,14.256 C64.013766,14.4660774 63.5091264,14.5760541 62.9981133,14.5786667 Z" id="Shape" fill="#FFFFFF"></path>
            <polygon id="Shape" fill="#FFFFFF" points="68.9796977 14.432 68.1505672 14.432 68.1505672 8.74133333 66.4330826 8.74133333 66.4330826 8.06666667 70.9340768 8.06666667 70.9340768 8.85866667 69.0981449 8.85866667"></polygon>
            <path d="M76.5603196,8.06666667 L74.1025398,13.5226667 C73.8984753,14.2018383 73.27775,14.6748291 72.562726,14.696 C72.3388434,14.6833859 72.1186604,14.6338149 71.9112663,14.5493333 L72.1481608,13.7866667 C72.2950203,13.8130693 72.4454783,13.8130693 72.5923378,13.7866667 C72.7384339,13.8204419 72.8904188,13.8204419 73.0365149,13.7866667 C73.16277,13.6714855 73.263591,13.5316635 73.3326329,13.376 L73.5695273,12.848 L71.3782539,8.06666667 L72.3554434,8.06666667 L73.9544808,11.792 L75.5239064,8.06666667 L76.5603196,8.06666667 Z" id="Shape" fill="#FFFFFF"></path>
            <polygon id="Shape" fill="#FFFFFF" points="77.5078973 14.432 77.5078973 8.06666667 82.2457859 8.06666667 82.2457859 14.5493333 81.3870436 14.5493333 81.3870436 8.85866667 78.4258632 8.85866667 78.4258632 14.5493333"></polygon>
            <polygon id="Shape" fill="#FFFFFF" points="83.7263761 14.432 83.7263761 8.06666667 84.5851184 8.06666667 84.5851184 11 87.8424169 11 87.8424169 8.06666667 88.6715474 8.06666667 88.6715474 14.5493333 87.8424169 14.5493333 87.8424169 11.616 84.5851184 11.616 84.5851184 14.5493333"></polygon>
            <path d="M95.5118741,13.5813333 C94.8819026,14.2228776 94.0168084,14.5848014 93.113318,14.5848014 C92.2098276,14.5848014 91.3447334,14.2228776 90.7147619,13.5813333 C89.4544081,12.232062 89.4544081,10.1492714 90.7147619,8.8 C91.6762355,7.81969515 93.1465569,7.52451403 94.4174595,8.05664795 C95.6883621,8.58878187 96.4992264,9.83910799 96.4594519,11.2053333 C96.4906017,12.0933573 96.1472987,12.954171 95.5118741,13.5813333 Z M91.3366098,13.0533333 C91.8091962,13.5186076 92.4470415,13.7818772 93.113318,13.7866667 C93.7822466,13.7951074 94.4250558,13.529789 94.8900262,13.0533333 C95.879192,12.0048535 95.879192,10.3764798 94.8900262,9.328 C94.4220233,8.85933927 93.7784994,8.60435042 93.113318,8.624 C92.4506151,8.6178095 91.8121882,8.87077876 91.3366098,9.328 C90.438433,10.4104055 90.438433,11.9709279 91.3366098,13.0533333 Z" id="Shape" fill="#FFFFFF"></path>
            <path d="M99.8944211,14.432 L99.8944211,8.06666656 L102.263365,8.06666667 C102.754041,8.06650781 103.22789,8.24383412 103.595897,8.56533333 C103.951735,8.8904139 104.155472,9.34716831 104.158521,9.82666667 C104.161815,10.1174327 104.079494,10.4028472 103.921626,10.648 C103.75493,10.8775071 103.530274,11.0595882 103.270167,11.176 C103.587638,11.2921345 103.865023,11.4956722 104.069685,11.7626667 C104.27237,12.022322 104.377111,12.343964 104.365804,12.672 C104.384759,13.1789871 104.166162,13.6662038 103.773567,13.992 C103.396544,14.3404749 102.89737,14.5298502 102.381813,14.52 L99.8944211,14.432 Z M100.753163,10.736 L102.263365,10.736 C102.554351,10.7402902 102.83375,10.6231944 103.033272,10.4133333 C103.387036,10.0318148 103.387036,9.44551854 103.033272,9.064 C102.850214,8.84875177 102.576854,8.72960453 102.292977,8.74133333 L100.753163,8.74133333 L100.753163,10.736 Z M100.753163,13.6693333 L102.441036,13.6693333 C102.737469,13.669998 103.019134,13.5412216 103.210943,13.3173333 C103.404417,13.1217843 103.511021,12.8577799 103.507061,12.584 C103.509768,12.3190796 103.402744,12.0646374 103.210943,11.88 C103.00331,11.6434271 102.697945,11.5137871 102.381813,11.528 L100.753163,11.528 L100.753163,13.6693333 Z" id="Shape" fill="#FFFFFF"></path>
        </g>
    </g>
</svg>